<svg width="40" height="40" viewBox="0 0 40 40" fill="none" xmlns="http://www.w3.org/2000/svg">
  <!-- Main Circle -->
  <circle cx="20" cy="16" r="14" fill="#27a8e3"/>
  
  <!-- Globe Outline -->
  <circle cx="20" cy="16" r="12" stroke="white" stroke-width="1" fill="none"/>
  <line x1="8" y1="16" x2="32" y2="16" stroke="white" stroke-width="1"/>
  <line x1="20" y1="4" x2="20" y2="28" stroke="white" stroke-width="1"/>
  <path d="M8 16 Q20 8 32 16" stroke="white" stroke-width="1" fill="none"/>
  <path d="M8 16 Q20 24 32 16" stroke="white" stroke-width="1" fill="none"/>
  
  <!-- TD Monogram -->
  <path d="M14 8 L14 24 L18 24 L18 12 L26 12 L26 8 Z" fill="white"/>
  <path d="M22 8 L22 24 L26 24 L26 20 L30 20 L30 16 L26 16 L26 12 L30 12 L30 8 Z" fill="white"/>
  
  <!-- Banner -->
  <path d="M6 28 L34 28 L32 32 L8 32 Z" fill="#27a8e3"/>
  <text x="20" y="30" text-anchor="middle" fill="white" font-family="Arial, sans-serif" font-size="6" font-weight="bold">TIẾNG TRUNG TOÀN DIỆN</text>
</svg>
